<svg version="1.1" id="Layer_1" xmlns="http://www.w3.org/2000/svg" xmlns:xlink="http://www.w3.org/1999/xlink" x="0px" y="0px"
	 width="100%" viewBox="0 0 254 249" enable-background="new 0 0 254 249" xml:space="preserve">
<path fill="#FFFFFF" opacity="1.000000" stroke="none" 
	d="
M146.000000,250.000000 
	C97.333336,250.000000 49.166672,250.000000 1.000006,250.000000 
	C1.000004,167.000015 1.000004,84.000015 1.000002,1.000018 
	C85.666649,1.000012 170.333298,1.000012 254.999969,1.000006 
	C254.999969,83.999977 254.999969,166.999954 254.999985,249.999969 
	C218.833328,250.000000 182.666672,250.000000 146.000000,250.000000 
M51.414398,236.150238 
	C51.414398,236.150238 51.837006,236.277878 51.903881,236.989655 
	C50.384876,240.641083 48.865871,244.292511 46.925552,248.956711 
	C56.669872,248.956711 64.953140,249.033417 73.231361,248.864044 
	C74.322823,248.841721 75.939034,247.804581 76.369728,246.823654 
	C78.113403,242.852127 79.379852,238.674240 81.027466,234.656616 
	C83.074814,229.664261 85.385757,224.780533 87.469521,219.802460 
	C89.383896,215.229050 91.712791,210.725647 92.836510,205.950760 
	C94.272255,199.849976 94.676117,199.015121 101.145004,199.003021 
	C124.787376,198.958755 148.429764,198.919922 172.696243,199.226166 
	C175.211884,204.916397 177.856476,210.553864 180.211395,216.309860 
	C183.340759,223.958801 183.243713,223.992416 191.548111,224.001968 
	C194.029694,224.004822 196.511230,224.052109 199.325867,224.686996 
	C201.847687,235.613556 209.316498,237.718399 219.660019,235.934006 
	C220.052704,236.063782 220.445389,236.193558 221.023941,237.014557 
	C222.102646,239.794022 223.021301,242.651764 224.326355,245.320557 
	C224.996658,246.691269 226.322815,248.716293 227.410110,248.753220 
	C235.818573,249.038895 244.241074,248.910675 253.688705,248.910675 
	C252.849655,245.206818 252.579941,242.256088 251.500549,239.639343 
	C249.595413,235.020599 246.954926,230.703964 245.069885,226.078461 
	C243.018524,221.044830 241.581390,215.764297 239.671249,210.668350 
	C238.629578,207.889359 237.576447,204.951157 235.800659,202.645264 
	C232.218231,197.993378 231.491714,192.227158 229.058380,187.151443 
	C228.519958,186.028366 229.206177,183.943863 228.476761,183.352371 
	C225.545074,180.975021 225.940506,177.134705 224.334457,174.633194 
	C222.158737,171.244400 222.059158,167.151260 220.196259,164.428909 
	C217.934402,161.123550 217.729294,157.745850 216.414734,154.495987 
	C215.291214,151.718307 212.054443,149.828613 212.789108,146.070129 
	C212.874924,145.631119 212.175919,144.650925 211.709213,144.553818 
	C208.354416,143.855835 209.501236,141.155167 208.912735,139.062378 
	C207.481262,133.971954 205.881180,128.888382 203.815506,124.028824 
	C201.920181,119.570023 198.957993,115.557457 197.140656,111.074715 
	C195.150711,106.166206 194.047195,100.905701 192.334595,95.874428 
	C191.428680,93.213013 190.116425,90.679184 188.853256,88.154999 
	C188.291336,87.032120 187.340714,86.110664 186.670959,85.032883 
	C186.044006,84.023956 185.398010,82.980667 185.032379,81.863472 
	C183.375290,76.800133 181.837891,71.697655 180.186127,66.632515 
	C180.001999,66.067894 179.316879,65.684570 178.947769,65.158470 
	C178.268097,64.189705 177.417282,63.256802 177.046906,62.169575 
	C175.275223,56.968899 173.643234,51.720673 171.951233,46.492710 
	C171.852158,46.186562 171.672775,45.903881 171.513016,45.620274 
	C169.358398,41.795212 165.500031,38.010323 165.412628,34.139858 
	C165.251617,27.009827 161.203171,27.929426 156.884781,27.998888 
	C154.221802,28.041721 151.558731,28.078299 148.356979,27.713394 
	C147.237808,27.142780 146.118637,26.572166 145.001892,25.134245 
	C144.987610,16.941908 144.055359,16.001005 135.940338,15.997019 
	C133.280350,15.995712 130.620361,15.999884 127.440514,15.470791 
	C126.630203,14.613390 125.295784,13.864340 125.092583,12.881434 
	C123.481293,5.087345 121.141533,3.003969 113.501877,3.000742 
	C109.669594,2.999124 105.803871,3.316187 102.013733,2.916186 
	C97.551079,2.445209 95.273155,4.434344 93.706635,8.303779 
	C90.228134,16.896000 86.469688,25.374605 82.963943,33.956139 
	C71.372444,62.330425 59.941162,90.770538 48.258396,119.107048 
	C38.457954,142.878021 28.354799,166.524017 18.459545,190.256149 
	C13.888206,201.219742 9.493017,212.256775 4.664018,224.130829 
	C13.533374,224.130829 21.632689,224.130829 29.890087,224.869095 
	C28.572954,228.703461 27.255821,232.537842 26.076578,235.970795 
	C34.883038,235.970795 42.947044,235.970795 51.414398,236.150238 
z"/>
<path fill="#68E0E5" opacity="1.000000" stroke="none" 
	d="
M29.732004,224.130829 
	C21.632689,224.130829 13.533374,224.130829 4.664018,224.130829 
	C9.493017,212.256775 13.888206,201.219742 18.459545,190.256149 
	C28.354799,166.524017 38.457954,142.878021 48.258396,119.107048 
	C59.941162,90.770538 71.372444,62.330425 82.963943,33.956139 
	C86.469688,25.374605 90.228134,16.896000 93.706635,8.303779 
	C95.273155,4.434344 97.551079,2.445209 102.013733,2.916186 
	C105.803871,3.316187 109.669594,2.999124 113.501877,3.000742 
	C121.141533,3.003969 123.481293,5.087345 125.092583,12.881434 
	C125.295784,13.864340 126.630203,14.613390 127.718987,16.120396 
	C130.027145,22.173849 132.056839,27.577694 134.190720,33.318489 
	C136.218185,38.042690 138.214584,42.399563 140.052353,46.822346 
	C149.056427,68.491821 158.060440,90.161491 166.983017,111.864594 
	C175.716690,133.108215 184.275909,154.423798 193.069183,175.642517 
	C196.472183,183.854172 200.307770,191.886566 203.970840,200.384460 
	C206.915451,208.323441 209.835510,215.878586 213.004959,224.079041 
	C207.861130,224.079041 203.426956,224.079041 198.992783,224.079041 
	C196.511230,224.052109 194.029694,224.004822 191.548111,224.001968 
	C183.243713,223.992416 183.340759,223.958801 180.211395,216.309860 
	C177.856476,210.553864 175.211884,204.916397 172.322388,198.692566 
	C170.270889,194.103775 168.593277,190.048599 166.917908,185.629364 
	C165.800049,182.869934 164.382751,180.563553 163.632385,178.057465 
	C162.612198,174.650238 160.358932,173.964584 157.239624,173.973633 
	C130.166245,174.052170 103.092659,174.063843 75.550377,174.063889 
	C69.772293,174.021805 64.451302,174.222687 59.157532,173.930344 
	C55.280968,173.716278 53.425961,175.602234 52.124016,178.852051 
	C46.601974,192.635757 40.846786,206.329208 35.560642,220.201904 
	C34.348011,223.384247 32.633076,224.239563 29.732004,224.130829 
M91.941322,147.979080 
	C100.317596,147.946365 108.693878,147.913666 117.820847,148.250443 
	C127.430222,148.500549 137.040039,148.735291 146.648773,149.007858 
	C150.883957,149.127991 152.029953,147.478012 150.329788,143.477936 
	C146.507385,134.484680 142.951691,125.378174 139.141342,116.379631 
	C137.641418,112.837349 135.751770,109.460091 133.953369,105.266663 
	C129.669693,94.847153 125.386009,84.427635 120.985291,73.343475 
	C120.334496,72.220444 119.683701,71.097412 119.001373,69.210571 
	C115.726814,60.889900 112.452248,52.569233 109.177681,44.248562 
	C108.667198,44.272011 108.156708,44.295456 107.646225,44.318905 
	C105.100182,50.367958 102.528412,56.406342 100.013229,62.468197 
	C93.988167,76.989212 87.948639,91.504463 81.993240,106.054085 
	C77.040855,118.153244 72.108612,130.262375 67.354332,142.440048 
	C65.435043,147.356140 65.966225,147.951828 71.052422,147.984833 
	C76.376579,148.019379 81.701485,147.939178 87.818916,147.978699 
	C88.881317,147.961502 89.943718,147.944305 91.941322,147.979080 
z"/>
<path fill="#BEC6E5" opacity="1.000000" stroke="none" 
	d="
M148.895691,28.117683 
	C151.558731,28.078299 154.221802,28.041721 156.884781,27.998888 
	C161.203171,27.929426 165.251617,27.009827 165.412628,34.139858 
	C165.500031,38.010323 169.358398,41.795212 171.513016,45.620274 
	C171.672775,45.903881 171.852158,46.186562 171.951233,46.492710 
	C173.643234,51.720673 175.275223,56.968899 177.046906,62.169575 
	C177.417282,63.256802 178.268097,64.189705 178.947769,65.158470 
	C179.316879,65.684570 180.001999,66.067894 180.186127,66.632515 
	C181.837891,71.697655 183.375290,76.800133 185.032379,81.863472 
	C185.398010,82.980667 186.044006,84.023956 186.670959,85.032883 
	C187.340714,86.110664 188.291336,87.032120 188.853256,88.154999 
	C190.116425,90.679184 191.428680,93.213013 192.334595,95.874428 
	C194.047195,100.905701 195.150711,106.166206 197.140656,111.074715 
	C198.957993,115.557457 201.920181,119.570023 203.815506,124.028824 
	C205.881180,128.888382 207.481262,133.971954 208.912735,139.062378 
	C209.501236,141.155167 208.354416,143.855835 211.709213,144.553818 
	C212.175919,144.650925 212.874924,145.631119 212.789108,146.070129 
	C212.054443,149.828613 215.291214,151.718307 216.414734,154.495987 
	C217.729294,157.745850 217.934402,161.123550 220.196259,164.428909 
	C222.059158,167.151260 222.158737,171.244400 224.334457,174.633194 
	C225.940506,177.134705 225.545074,180.975021 228.476761,183.352371 
	C229.206177,183.943863 228.519958,186.028366 229.058380,187.151443 
	C231.491714,192.227158 232.218231,197.993378 235.800659,202.645264 
	C237.576447,204.951157 238.629578,207.889359 239.671249,210.668350 
	C241.581390,215.764297 243.018524,221.044830 245.069885,226.078461 
	C246.954926,230.703964 249.595413,235.020599 251.500549,239.639343 
	C252.579941,242.256088 252.849655,245.206818 253.688705,248.910675 
	C244.241074,248.910675 235.818573,249.038895 227.410110,248.753220 
	C226.322815,248.716293 224.996658,246.691269 224.326355,245.320557 
	C223.021301,242.651764 222.102646,239.794022 221.376892,236.558456 
	C225.566513,236.278931 229.403198,236.455490 233.786560,236.657227 
	C233.012680,233.910782 232.632431,231.814499 231.843948,229.885056 
	C226.966171,217.948914 221.996811,206.050186 217.057404,194.139236 
	C206.672455,169.096786 196.279739,144.057556 185.904343,119.011147 
	C176.920181,97.323174 167.908936,75.646225 159.005402,53.925156 
	C155.501694,45.377514 152.257874,36.723339 148.895691,28.117683 
z"/>
<path fill="#7587C9" opacity="1.000000" stroke="none" 
	d="
M148.626343,27.915539 
	C152.257874,36.723339 155.501694,45.377514 159.005402,53.925156 
	C167.908936,75.646225 176.920181,97.323174 185.904343,119.011147 
	C196.279739,144.057556 206.672455,169.096786 217.057404,194.139236 
	C221.996811,206.050186 226.966171,217.948914 231.843948,229.885056 
	C232.632431,231.814499 233.012680,233.910782 233.786560,236.657227 
	C229.403198,236.455490 225.566513,236.278931 221.283951,236.212830 
	C220.445389,236.193558 220.052704,236.063782 219.338013,235.481140 
	C218.338516,233.166031 217.761078,231.259888 216.966812,229.448837 
	C212.656189,219.619797 208.292023,209.814255 203.946274,200.000626 
	C200.307770,191.886566 196.472183,183.854172 193.069183,175.642517 
	C184.275909,154.423798 175.716690,133.108215 166.983017,111.864594 
	C158.060440,90.161491 149.056427,68.491821 140.052353,46.822346 
	C138.214584,42.399563 136.218185,38.042690 134.451019,33.084820 
	C135.490036,28.670637 137.371307,26.243490 141.852524,26.925531 
	C142.831940,27.074598 143.946915,26.332981 144.999466,26.001556 
	C146.118637,26.572166 147.237808,27.142780 148.626343,27.915539 
z"/>
<path fill="#BEC6E5" opacity="1.000000" stroke="none" 
	d="
M166.915649,185.993423 
	C168.593277,190.048599 170.270889,194.103775 172.010330,198.518997 
	C148.429764,198.919922 124.787376,198.958755 101.145004,199.003021 
	C94.676117,199.015121 94.272255,199.849976 92.836510,205.950760 
	C91.712791,210.725647 89.383896,215.229050 87.469521,219.802460 
	C85.385757,224.780533 83.074814,229.664261 81.027466,234.656616 
	C79.379852,238.674240 78.113403,242.852127 76.369728,246.823654 
	C75.939034,247.804581 74.322823,248.841721 73.231361,248.864044 
	C64.953140,249.033417 56.669872,248.956711 46.925552,248.956711 
	C48.865871,244.292511 50.384876,240.641083 52.193153,236.618195 
	C53.673283,235.239334 55.427803,234.469620 55.968246,233.187958 
	C61.674488,219.655441 67.484871,206.151886 72.597275,192.391708 
	C74.472855,187.343552 77.252419,185.918076 82.171249,185.939255 
	C110.418938,186.060822 138.667435,185.995422 166.915649,185.993423 
z"/>
<path fill="#93A0D4" opacity="1.000000" stroke="none" 
	d="
M29.811047,224.499969 
	C32.633076,224.239563 34.348011,223.384247 35.560642,220.201904 
	C40.846786,206.329208 46.601974,192.635757 52.124016,178.852051 
	C53.425961,175.602234 55.280968,173.716278 59.157532,173.930344 
	C64.451302,174.222687 69.772293,174.021805 75.504227,174.415863 
	C72.904839,181.974304 69.802032,189.116470 66.878464,196.331253 
	C61.533398,209.521774 56.294331,222.755234 51.011055,235.970795 
	C42.947044,235.970795 34.883038,235.970795 26.076578,235.970795 
	C27.255821,232.537842 28.572954,228.703461 29.811047,224.499969 
z"/>
<path fill="#7385C8" opacity="1.000000" stroke="none" 
	d="
M51.212730,236.060516 
	C56.294331,222.755234 61.533398,209.521774 66.878464,196.331253 
	C69.802032,189.116470 72.904839,181.974304 75.972977,174.447418 
	C103.092659,174.063843 130.166245,174.052170 157.239624,173.973633 
	C160.358932,173.964584 162.612198,174.650238 163.632385,178.057465 
	C164.382751,180.563553 165.800049,182.869934 166.917908,185.629364 
	C138.667435,185.995422 110.418938,186.060822 82.171249,185.939255 
	C77.252419,185.918076 74.472855,187.343552 72.597275,192.391708 
	C67.484871,206.151886 61.674488,219.655441 55.968246,233.187958 
	C55.427803,234.469620 53.673283,235.239334 52.159718,236.262299 
	C51.837006,236.277878 51.414398,236.150238 51.212730,236.060516 
z"/>
<path fill="#93A0D4" opacity="1.000000" stroke="none" 
	d="
M203.970840,200.384460 
	C208.292023,209.814255 212.656189,219.619797 216.966812,229.448837 
	C217.761078,231.259888 218.338516,233.166031 219.040894,235.392456 
	C209.316498,237.718399 201.847687,235.613556 199.159332,224.383026 
	C203.426956,224.079041 207.861130,224.079041 213.004959,224.079041 
	C209.835510,215.878586 206.915451,208.323441 203.970840,200.384460 
z"/>
<path fill="#93A0D4" opacity="1.000000" stroke="none" 
	d="
M145.000671,25.567902 
	C143.946915,26.332981 142.831940,27.074598 141.852524,26.925531 
	C137.371307,26.243490 135.490036,28.670637 134.346832,32.747871 
	C132.056839,27.577694 130.027145,22.173849 127.978912,16.385777 
	C130.620361,15.999884 133.280350,15.995712 135.940338,15.997019 
	C144.055359,16.001005 144.987610,16.941908 145.000671,25.567902 
z"/>
<path fill="#93A0D4" opacity="1.000000" stroke="none" 
	d="
M87.026062,147.909119 
	C81.701485,147.939178 76.376579,148.019379 71.052422,147.984833 
	C65.966225,147.951828 65.435043,147.356140 67.354332,142.440048 
	C72.108612,130.262375 77.040855,118.153244 81.993240,106.054085 
	C87.948639,91.504463 93.988167,76.989212 100.013229,62.468197 
	C102.528412,56.406342 105.100182,50.367958 107.646225,44.318905 
	C108.156708,44.295456 108.667198,44.272011 109.177681,44.248562 
	C112.452248,52.569233 115.726814,60.889900 118.867569,69.924393 
	C115.171623,79.388847 111.632858,88.149094 108.042351,96.888077 
	C101.052246,113.901390 94.033150,130.902786 87.026062,147.909119 
z"/>
<path fill="#BEC6E5" opacity="1.000000" stroke="none" 
	d="
M121.102333,74.008118 
	C125.386009,84.427635 129.669693,94.847153 133.951813,106.004349 
	C131.868408,111.668121 129.874710,116.633919 127.678947,121.508705 
	C125.643242,126.028175 123.164345,130.358078 121.301949,134.942612 
	C119.598312,139.136353 118.458450,143.559113 117.070152,147.880951 
	C108.693878,147.913666 100.317596,147.946365 91.618423,147.627899 
	C95.875130,136.152451 100.493904,125.044075 105.024239,113.899757 
	C110.423210,100.618645 115.746338,87.306702 121.102333,74.008118 
z"/>
<path fill="#FEFFFF" opacity="1.000000" stroke="none" 
	d="
M117.445496,148.065704 
	C118.458450,143.559113 119.598312,139.136353 121.301949,134.942612 
	C123.164345,130.358078 125.643242,126.028175 127.678947,121.508705 
	C129.874710,116.633919 131.868408,111.668121 133.994934,106.374855 
	C135.751770,109.460091 137.641418,112.837349 139.141342,116.379631 
	C142.951691,125.378174 146.507385,134.484680 150.329788,143.477936 
	C152.029953,147.478012 150.883957,149.127991 146.648773,149.007858 
	C137.040039,148.735291 127.430222,148.500549 117.445496,148.065704 
z"/>
<path fill="#7385C8" opacity="1.000000" stroke="none" 
	d="
M121.043808,73.675797 
	C115.746338,87.306702 110.423210,100.618645 105.024239,113.899757 
	C100.493904,125.044075 95.875130,136.152451 91.150818,147.601929 
	C89.943718,147.944305 88.881317,147.961502 87.422485,147.943909 
	C94.033150,130.902786 101.052246,113.901390 108.042351,96.888077 
	C111.632858,88.149094 115.171623,79.388847 118.883339,70.306290 
	C119.683701,71.097412 120.334496,72.220444 121.043808,73.675797 
z"/>
</svg>