<?xml version="1.0" standalone="no"?>
<!DOCTYPE svg PUBLIC "-//W3C//DTD SVG 20010904//EN"
 "http://www.w3.org/TR/2001/REC-SVG-20010904/DTD/svg10.dtd">
<svg version="1.0" xmlns="http://www.w3.org/2000/svg"
 width="493.000000pt" height="500.000000pt" viewBox="0 0 493.000000 500.000000"
 preserveAspectRatio="xMidYMid meet">

<g transform="translate(0.000000,500.000000) scale(0.100000,-0.100000)"
fill="#000000" stroke="none">
<path d="M2676 4643 c24 -59 440 -1069 923 -2243 l878 -2135 -139 -3 c-108 -2
-138 -5 -131 -15 5 -7 24 -52 42 -102 18 -50 36 -97 40 -105 7 -13 53 -15 306
-18 227 -2 300 1 306 10 6 10 -14 61 -31 78 -3 3 -7 14 -8 25 -2 11 -9 23 -15
27 -7 4 -8 8 -3 8 4 0 1 11 -8 25 -9 14 -14 25 -11 25 4 0 0 12 -8 28 -14 26
-20 40 -49 109 -7 18 -15 33 -18 33 -3 0 -6 9 -7 21 -2 23 -25 79 -33 79 -3 0
-6 10 -7 22 -1 11 -6 24 -10 27 -4 3 -10 15 -11 26 -2 11 -7 22 -10 25 -4 3
-9 14 -10 25 -2 11 -7 22 -10 25 -4 3 -9 14 -10 25 -2 11 -7 22 -10 25 -4 3
-9 14 -10 25 -2 11 -9 23 -15 27 -7 4 -8 8 -4 8 4 0 2 10 -5 23 -6 12 -13 31
-15 42 -2 10 -9 23 -16 27 -6 4 -7 8 -2 8 6 0 1 7 -9 15 -14 11 -16 15 -5 15
8 0 10 3 4 8 -5 4 -12 16 -13 27 -2 11 -8 22 -13 23 -5 2 -7 8 -3 13 3 5 -2
12 -11 15 -13 6 -14 8 -3 15 10 7 11 9 0 9 -7 0 -10 5 -7 10 3 6 -1 13 -10 16
-13 6 -14 8 -3 15 10 7 11 9 0 9 -7 0 -10 5 -7 10 3 6 -1 13 -10 16 -13 6 -14
8 -3 15 10 7 11 9 0 9 -7 0 -10 5 -7 10 3 6 0 12 -7 15 -8 3 -15 17 -16 32 -1
14 -7 32 -13 39 -6 8 -8 14 -5 14 4 0 1 12 -8 27 -23 44 -56 122 -56 133 0 5
-4 10 -8 10 -4 0 -8 10 -9 22 -1 11 -6 24 -10 27 -4 3 -10 15 -11 26 -2 11 -7
22 -10 25 -4 3 -9 14 -10 25 -2 11 -9 23 -15 27 -7 4 -8 8 -3 8 4 0 1 11 -8
25 -9 14 -14 25 -11 25 4 0 -1 12 -9 28 -15 29 -29 62 -30 75 -1 4 -5 11 -11
15 -5 4 -11 16 -13 27 -4 26 -25 75 -32 75 -3 0 -6 10 -7 22 -1 11 -6 24 -10
27 -4 3 -10 15 -11 26 -2 11 -7 22 -10 25 -4 3 -9 14 -10 25 -2 11 -7 22 -10
25 -4 3 -9 14 -10 25 -2 11 -7 22 -10 25 -4 3 -9 14 -10 25 -2 11 -7 22 -10
25 -4 3 -9 14 -10 25 -2 11 -7 22 -10 25 -4 3 -9 14 -10 25 -2 11 -9 23 -15
27 -7 4 -7 8 -2 8 6 0 1 7 -9 15 -14 11 -16 15 -5 15 8 0 10 3 4 8 -5 4 -12
16 -13 27 -2 11 -9 23 -15 27 -7 4 -7 8 -2 8 6 0 1 7 -9 15 -14 11 -16 15 -5
15 12 0 12 2 -1 10 -8 5 -10 10 -5 10 6 0 1 7 -9 15 -14 11 -16 15 -5 15 12 0
12 2 -1 10 -8 5 -11 10 -6 10 4 0 1 11 -8 25 -9 14 -14 25 -10 25 3 0 -1 11
-10 25 -9 14 -14 25 -10 25 3 0 -1 11 -10 25 -9 14 -14 25 -11 25 4 0 0 12 -8
28 -14 26 -20 40 -49 110 -7 17 -15 32 -18 32 -3 0 -6 10 -7 22 -1 11 -6 24
-10 27 -4 3 -10 15 -11 26 -2 11 -7 22 -10 25 -4 3 -9 14 -10 25 -2 11 -9 23
-15 27 -7 4 -8 8 -3 8 4 0 1 11 -8 25 -9 14 -14 25 -10 25 3 0 -1 11 -10 25
-9 14 -14 25 -10 25 3 0 -1 11 -10 25 -9 14 -14 25 -11 25 4 0 -1 12 -9 28 -8
15 -20 42 -28 60 -7 17 -15 32 -18 32 -3 0 -6 10 -7 22 -1 11 -6 24 -10 27 -4
3 -10 15 -11 26 -2 11 -7 22 -10 25 -4 3 -9 14 -10 25 -2 11 -7 22 -10 25 -4
3 -9 14 -10 25 -2 11 -7 22 -10 25 -4 3 -9 14 -10 25 -2 11 -7 22 -12 25 -4 3
-6 13 -4 23 1 10 -3 20 -10 23 -6 2 -13 14 -13 26 -1 12 -6 24 -10 27 -4 3
-10 15 -11 26 -2 11 -9 23 -15 27 -7 4 -7 8 -2 8 6 0 1 7 -9 15 -14 11 -16 15
-5 15 8 0 10 3 4 8 -5 4 -12 16 -13 27 -2 11 -7 22 -10 25 -4 3 -9 14 -10 25
-2 11 -9 23 -15 27 -7 4 -8 8 -4 8 4 0 2 10 -5 23 -6 12 -13 31 -15 42 -2 10
-9 23 -16 27 -6 4 -8 8 -4 8 5 0 1 12 -7 28 -13 24 -27 58 -30 72 -4 16 -32
70 -36 70 -3 0 -6 9 -7 21 -2 23 -25 79 -33 79 -3 0 -6 10 -7 22 -1 11 -6 24
-10 27 -4 3 -10 15 -11 26 -2 11 -7 22 -10 25 -4 3 -9 14 -10 25 -2 11 -7 22
-10 25 -4 3 -9 14 -10 25 -2 11 -7 22 -10 25 -4 3 -9 14 -10 25 -2 11 -7 22
-10 25 -4 3 -9 14 -10 25 -2 11 -9 23 -15 27 -7 4 -8 8 -4 8 4 0 2 10 -5 23
-7 12 -12 26 -13 30 0 4 -5 11 -10 15 -6 4 -10 14 -10 22 1 8 -3 24 -9 35 -6
11 -9 24 -8 28 1 4 -5 10 -14 14 -13 5 -13 7 -2 14 10 7 11 9 0 9 -7 0 -10 5
-7 10 3 6 0 13 -9 16 -8 3 -13 14 -11 25 2 12 -3 23 -11 26 -13 5 -13 7 -2 14
10 7 11 9 0 9 -7 0 -10 5 -7 10 3 6 0 13 -9 16 -8 3 -13 14 -11 25 2 10 -4 23
-13 29 -14 8 -14 9 -2 10 13 0 13 1 0 10 -20 13 -251 13 -286 0 -18 -7 -30 -7
-40 1 -7 6 7 -38 32 -98z"/>
<path d="M2231 4116 c-12 -27 -204 -497 -427 -1045 -224 -548 -424 -1038 -445
-1088 l-38 -93 267 0 267 0 15 33 c7 17 13 34 11 36 -1 2 2 7 7 10 6 3 12 15
14 26 1 11 6 22 10 25 3 3 8 14 10 25 1 11 7 23 11 26 4 3 9 16 10 27 1 12 6
22 12 22 5 0 4 4 -3 9 -11 7 -10 9 3 15 9 3 13 10 10 16 -3 5 0 10 7 10 11 0
10 2 0 9 -11 7 -10 9 3 15 9 3 13 10 10 16 -3 5 0 10 7 10 11 0 10 2 0 9 -11
7 -10 9 3 15 9 3 13 10 10 16 -3 5 0 10 7 10 11 0 10 2 0 9 -11 7 -10 9 3 15
9 3 14 10 11 15 -4 5 -2 11 3 13 5 1 11 12 13 23 1 11 6 22 10 25 3 3 8 14 10
25 1 11 6 22 10 25 3 3 8 14 10 25 1 11 6 22 10 25 3 3 8 14 10 25 1 11 6 22
10 25 3 3 8 14 10 25 1 11 6 22 10 25 3 3 8 14 10 25 1 11 5 22 8 25 12 12 36
66 35 80 0 8 4 18 10 22 5 4 10 11 10 15 1 4 6 18 13 31 7 12 10 22 6 22 -3 0
-2 6 4 13 5 6 12 23 14 37 1 14 10 30 18 37 8 7 11 13 5 13 -5 0 -5 4 2 8 6 4
13 16 15 27 1 11 6 22 10 25 3 3 8 14 10 25 1 11 6 22 10 25 4 3 9 15 11 25 2
11 9 30 15 43 7 12 10 22 7 22 -3 0 2 11 11 25 9 14 12 25 8 25 -5 0 -4 4 3 8
6 4 13 16 15 27 1 11 6 22 10 25 3 3 8 14 10 25 1 11 6 22 10 25 3 3 8 14 10
25 1 11 7 23 11 26 4 3 9 16 10 27 1 12 6 22 12 22 5 0 4 4 -3 9 -11 7 -10 9
3 15 9 3 13 10 10 16 -3 5 0 10 7 10 11 0 10 2 0 9 -11 6 -10 10 4 15 9 3 14
9 11 12 -3 4 -1 12 6 20 7 7 17 19 23 26 7 10 -12 66 -72 213 -45 110 -107
261 -137 335 l-55 135 -21 -49z"/>
<path d="M878 803 l-216 -538 -51 -3 c-35 -2 -49 -7 -45 -16 2 -6 -16 -55 -41
-108 -25 -52 -45 -100 -45 -107 0 -8 84 -11 304 -11 258 0 305 2 316 15 7 8 9
15 4 15 -5 0 -4 4 3 8 6 4 13 16 15 27 1 11 6 22 10 25 3 3 8 14 10 25 1 11 6
22 10 25 3 3 8 14 10 25 1 11 6 22 10 25 3 3 8 14 10 25 1 11 6 22 10 25 3 3
8 14 10 25 1 11 6 22 10 25 3 3 8 14 10 25 1 11 6 22 10 25 3 3 8 14 10 25 1
11 6 22 10 25 3 3 8 14 10 25 1 11 6 22 10 25 3 3 8 14 10 25 1 11 6 22 10 25
3 3 8 14 10 25 1 11 6 22 10 25 3 3 8 14 10 25 1 11 6 22 10 25 3 3 8 14 10
25 1 11 6 22 10 25 3 3 8 14 10 25 1 11 6 22 10 25 3 3 8 14 10 25 1 11 6 22
10 25 3 3 8 14 10 25 1 11 6 22 10 25 3 3 8 14 10 25 1 11 7 23 11 26 4 3 9
15 10 27 0 12 7 24 15 27 7 3 10 9 7 15 -3 5 0 10 7 10 11 0 10 2 0 9 -11 7
-10 9 3 15 9 3 13 10 10 16 -3 5 0 10 7 10 11 0 10 2 0 9 -11 7 -11 9 1 14 9
3 14 14 13 24 -2 10 7 25 19 35 21 16 90 18 986 21 530 3 969 6 976 7 12 3 9
12 -55 165 l-29 70 -1154 3 -1155 2 -216 -537z"/>
<path d="M63 253 c9 -2 25 -2 35 0 9 3 1 5 -18 5 -19 0 -27 -2 -17 -5z"/>
<path d="M3878 253 c6 -2 18 -2 25 0 6 3 1 5 -13 5 -14 0 -19 -2 -12 -5z"/>
</g>
</svg>
